<svg width="62" height="62" viewBox="0 0 62 62" fill="none" xmlns="http://www.w3.org/2000/svg">
<path d="M61.3594 30.9995C61.3131 35.0613 60.4571 39.0731 58.8418 42.8002C57.2265 46.5273 54.8844 49.8949 51.9521 52.7059C49.0198 55.517 45.5561 57.715 41.7642 59.1716C37.9723 60.6281 33.9279 61.3138 29.8678 61.1886C21.8343 60.8796 14.2431 57.4295 8.72743 51.5805C3.21172 45.7315 0.212243 37.9511 0.374414 29.9132C0.54406 21.9462 3.84248 14.366 9.55608 8.81113C15.2697 3.2563 22.9396 0.173145 30.9082 0.22814C34.9333 0.230713 38.9182 1.03073 42.6324 2.58201C46.3466 4.13328 49.7166 6.40507 52.548 9.26615C55.3793 12.1272 57.6157 15.5209 59.1281 19.2512C60.6405 22.9815 61.3989 26.9745 61.3594 30.9995ZM58.5936 31.0735C58.6764 27.4037 58.0234 23.7544 56.6738 20.3408C55.3243 16.9272 53.3054 13.8182 50.7355 11.1971C48.1657 8.57598 45.0973 6.49578 41.711 5.07905C38.3248 3.66232 34.6893 2.93773 31.0186 2.94798C23.7452 2.87158 16.7362 5.67239 11.5185 10.7403C6.30075 15.8083 3.29688 22.7327 3.16137 30.0054C3.06225 33.6445 3.68349 37.2672 4.98911 40.6655C6.29473 44.0637 8.259 47.1704 10.7692 49.8069C13.2795 52.4434 16.2861 54.5578 19.6162 56.0285C22.9463 57.4992 26.5341 58.2972 30.1736 58.3766C33.8393 58.477 37.4884 57.8476 40.9086 56.525C44.3289 55.2023 47.452 53.2128 50.0964 50.6722C52.7408 48.1316 54.8537 45.0905 56.3122 41.7259C57.7707 38.3613 58.5455 34.7403 58.5919 31.0735H58.5936Z" fill="#42A147"/>
<path d="M32.9434 27.8608H36.3197C36.3794 28.0765 36.4124 28.2996 36.4181 28.5245C36.2915 29.5299 36.1249 30.5287 36.0013 31.5341C36.0047 31.6185 35.9904 31.7027 35.9596 31.7805C35.9289 31.8583 35.8825 31.9278 35.8236 31.984C35.7647 32.0401 35.6949 32.0815 35.6192 32.1051C35.5436 32.1287 35.4641 32.134 35.3864 32.1205C34.6153 32.11 33.8443 32.1205 32.9603 32.1205V41.8161C32.6039 41.8413 32.3536 41.8714 32.1056 41.8747C31.2163 41.8844 30.3279 41.8966 29.4385 41.8869C28.694 41.8787 28.6765 41.8405 28.6742 41.0466C28.6667 38.369 28.6561 35.6913 28.6424 33.0136C28.6424 32.7468 28.6015 32.4792 28.5711 32.1067H25.499V27.9584H28.5112C28.5726 27.729 28.6177 27.4949 28.6461 27.2581C28.6795 26.2747 28.6553 25.2873 28.7274 24.308C28.7336 23.3135 29.0313 22.3463 29.5783 21.5434C30.1253 20.7405 30.8937 20.1426 31.7751 19.8343C32.3211 19.6492 32.8902 19.5537 33.4628 19.5513C34.3195 19.5439 35.1771 19.6489 36.0346 19.7083C36.1212 19.7006 36.2083 19.7138 36.2895 19.7469C36.3707 19.7799 36.4441 19.832 36.5042 19.8994C36.5643 19.9667 36.6095 20.0476 36.6367 20.1361C36.664 20.2246 36.6724 20.3185 36.6615 20.411C36.6562 21.2114 36.6532 22.0118 36.6684 22.8113C36.6775 23.2994 36.4485 23.4669 36.0315 23.4563C35.5766 23.4458 35.1134 23.4319 34.6554 23.4563C34.4313 23.4367 34.2059 23.4686 33.9942 23.55C33.7825 23.6313 33.5894 23.7601 33.4278 23.9279C33.2662 24.0956 33.1398 24.2984 33.0571 24.5227C32.9743 24.7471 32.9372 24.9877 32.948 25.2287C32.9071 26.0486 32.9434 26.8774 32.9434 27.8608Z" fill="#42A147"/>
</svg>
