<svg width="61" height="61" viewBox="0 0 61 61" fill="none" xmlns="http://www.w3.org/2000/svg">
<path d="M30.1287 60.9654C26.0834 60.8888 22.0933 60.0117 18.3888 58.3847C14.6843 56.7578 11.3388 54.4133 8.54516 51.4864C5.75155 48.5596 3.56534 45.1085 2.1126 41.3322C0.659866 37.5559 -0.0307003 33.5293 0.0810169 29.4848C0.321289 21.5996 3.62747 14.1191 9.29678 8.63356C14.9661 3.148 22.5512 0.089984 30.4399 0.10964C34.5134 0.06607 38.5537 0.846112 42.3182 2.40293C46.0827 3.95974 49.494 6.26122 52.3469 9.1692C55.1998 12.0772 57.4357 15.5317 58.9203 19.3253C60.4049 23.1189 61.1077 27.1734 60.9863 31.2454C60.7896 39.2635 57.4396 46.8806 51.6628 52.4444C45.8861 58.0083 38.1484 61.07 30.1287 60.9654ZM58.1925 30.3253C58.2021 26.7157 57.4993 23.1397 56.1248 19.802C54.7504 16.4643 52.731 13.4305 50.1824 10.8744C47.6338 8.31823 44.6063 6.28994 41.2728 4.90564C37.9392 3.52134 34.3651 2.80823 30.7556 2.80714C23.3874 2.76406 16.3037 5.64957 11.0628 10.829C5.82195 16.0084 2.85328 23.0575 2.80934 30.4258C2.77009 34.0921 3.46452 37.7292 4.85183 41.123C6.23914 44.5169 8.29108 47.599 10.8873 50.1879C13.4835 52.7769 16.5714 54.8204 19.9691 56.1982C23.3668 57.5759 27.0056 58.2602 30.6717 58.2106C34.3115 58.192 37.912 57.4554 41.2666 56.043C44.6212 54.6306 47.6643 52.5702 50.2213 49.9799C52.7783 47.3895 54.799 44.32 56.1678 40.9473C57.5366 37.5746 58.2265 33.965 58.198 30.3253H58.1925Z" fill="#201B52"/>
<path d="M43.7137 30.5747C43.7137 32.4804 43.768 34.3892 43.6994 36.2929C43.6988 37.4429 43.4305 38.577 42.9157 39.6054C42.4009 40.6338 41.6538 41.5282 40.7335 42.2179C39.8035 42.9627 38.6732 43.4143 37.486 43.5152C35.0921 43.6746 32.6922 43.7796 30.2931 43.8179C28.3895 43.8451 26.4827 43.7674 24.58 43.6787C22.8885 43.6134 21.2658 42.9925 19.9627 41.9122C19.1697 41.2742 18.5289 40.4675 18.0868 39.5508C17.6448 38.6341 17.4125 37.6304 17.4071 36.6127C17.3062 32.6116 17.2497 28.6014 17.4071 24.6073C17.5725 20.4388 20.1654 17.8591 24.3147 17.4576C25.8712 17.322 27.4336 17.2698 28.9956 17.3012C31.7377 17.3305 34.4798 17.3951 37.2188 17.5202C38.9063 17.6878 40.4794 18.4491 41.6578 19.6686C42.8363 20.888 43.5433 22.4863 43.6531 24.1786C43.7469 25.2409 43.7772 26.3103 43.8014 27.3766C43.8256 28.443 43.8065 29.5114 43.8065 30.5787L43.7137 30.5747ZM20.0301 30.5747H19.9666C19.9666 31.4897 19.9585 32.4058 19.9666 33.3198C19.9777 34.2721 20.001 35.2255 20.0272 36.1779C20.1089 39.0773 21.5687 40.8004 24.4721 40.9689C27.8527 41.1707 31.2484 41.1243 34.6371 41.1424C35.4749 41.1255 36.3102 41.0428 37.1351 40.8952C38.0364 40.8041 38.8833 40.4212 39.5471 39.8046C40.2108 39.188 40.6551 38.3715 40.8123 37.4793C40.9978 36.6611 41.099 35.8262 41.1148 34.9874C41.146 31.86 41.1471 28.7325 41.1017 25.6051C41.0618 24.7698 40.9378 23.9407 40.7315 23.1304C40.6269 22.5626 40.3765 22.0316 40.0052 21.5895C39.6338 21.1474 39.1541 20.8093 38.6129 20.6083C37.6596 20.235 36.6531 20.0163 35.6309 19.9606C32.5459 19.8718 29.4567 19.9031 26.3696 19.9172C25.6463 19.925 24.9248 19.9901 24.2118 20.1119C23.6184 20.1553 23.0394 20.3155 22.5081 20.5834C21.9769 20.8512 21.5036 21.2215 21.1158 21.6728C20.7281 22.1241 20.4334 22.6476 20.2486 23.2132C20.0638 23.7788 19.9927 24.3753 20.0393 24.9685C20.009 26.8329 20.0301 28.7013 20.0301 30.5696V30.5747Z" fill="#201B52"/>
<path d="M30.4451 23.6763C31.3534 23.6667 32.2547 23.8369 33.097 24.177C33.9393 24.5171 34.7061 25.0204 35.3531 25.6581C36.0001 26.2957 36.5145 27.0549 36.8668 27.8922C37.2192 28.7294 37.4026 29.6281 37.4062 30.5365C37.4152 32.3314 36.7138 34.0571 35.4553 35.337C34.1968 36.6169 32.4833 37.3471 30.6884 37.3684C28.8563 37.3888 27.0898 36.6867 25.7716 35.414C24.4534 34.1413 23.6895 32.4005 23.6455 30.5688C23.6393 28.7549 24.3509 27.0122 25.6248 25.7209C26.8987 24.4297 28.6314 23.6947 30.4451 23.6763ZM34.7258 30.5365C34.7463 29.9752 34.6516 29.4157 34.4477 28.8924C34.2438 28.3691 33.935 27.8931 33.5401 27.4938C33.1452 27.0944 32.6727 26.7802 32.1517 26.5704C31.6307 26.3606 31.0723 26.2598 30.5109 26.2741C29.948 26.277 29.3914 26.3927 28.874 26.6142C28.3565 26.8358 27.8888 27.1587 27.4981 27.564C27.1075 27.9693 26.802 28.4487 26.5997 28.9739C26.3973 29.4992 26.3023 30.0596 26.3201 30.6222C26.3146 31.175 26.421 31.7231 26.6329 32.2337C26.8448 32.7443 27.1578 33.2067 27.5531 33.5931C27.9483 33.9795 28.4179 34.282 28.9331 34.4822C29.4483 34.6825 29.9985 34.7765 30.551 34.7585C31.6633 34.7497 32.727 34.3008 33.5093 33.51C34.2916 32.7192 34.729 31.6509 34.7258 30.5385V30.5365Z" fill="#201B52"/>
<path d="M39.3094 23.5162C39.3145 23.6543 39.2989 23.7924 39.2631 23.9258C39.1671 24.2463 38.9793 24.5318 38.7232 24.747C38.5351 24.9256 38.3084 25.0586 38.0606 25.1355C37.8129 25.2125 37.5509 25.2315 37.2947 25.1909C36.9003 25.1095 36.5442 24.8993 36.2824 24.5935C36.0205 24.2876 35.8678 23.9033 35.8481 23.5011C35.8501 23.2708 35.898 23.0431 35.989 22.8316C36.0801 22.62 36.2122 22.4287 36.3782 22.269C36.5441 22.1092 36.7404 21.9842 36.9553 21.9013C37.1701 21.8184 37.3994 21.7792 37.6296 21.786C37.8984 21.8087 38.1588 21.8915 38.3914 22.0282C38.6539 22.1829 38.8745 22.3993 39.0345 22.6586C39.1945 22.9179 39.2888 23.2123 39.3094 23.5162Z" fill="#201B52"/>
</svg>
