<svg width="61" height="62" viewBox="0 0 61 62" fill="none" xmlns="http://www.w3.org/2000/svg">
<path d="M30.6243 0.100101C34.6385 0.118695 38.6095 0.929931 42.3093 2.48725C46.0092 4.04456 49.3651 6.31728 52.1843 9.17496C55.0036 12.0326 57.2308 15.419 58.7379 19.1396C60.245 22.8603 61.0022 26.8419 60.9665 30.8561C60.9303 34.9082 60.0862 38.9124 58.4833 42.6341C56.8804 46.3559 54.5512 49.7204 51.6318 52.5308C48.7124 55.3411 45.2614 57.5407 41.4814 59.0008C37.7013 60.4609 33.6682 61.1521 29.6177 61.034C21.5529 60.7766 13.9162 57.3435 8.37062 51.4822C2.825 45.6208 -0.180565 37.806 0.00840036 29.7391C0.221548 21.7762 3.54594 14.2137 9.26915 8.67308C14.9924 3.1325 22.6587 0.0548848 30.6243 0.100101ZM30.6744 2.84926C26.9717 2.82943 23.3027 3.55042 19.8828 4.96981C16.4629 6.38921 13.3613 8.47834 10.7608 11.1142C8.16031 13.7502 6.11338 16.8796 4.74036 20.3184C3.36733 23.7572 2.69582 27.436 2.7657 31.1381C2.8305 34.788 3.61842 38.3888 5.08395 41.7322C6.54948 45.0755 8.66366 48.0951 11.3038 50.616C13.9439 53.137 17.0576 55.1094 20.465 56.419C23.8724 57.7286 27.5058 58.3495 31.1547 58.2458C38.3674 58.0767 45.2298 55.1001 50.2816 49.9492C55.3334 44.7983 58.1758 37.8795 58.2048 30.6648C58.2458 27.0246 57.5639 23.4125 56.1984 20.0378C54.833 16.6632 52.8111 13.5932 50.2502 11.0058C47.6894 8.41841 44.6406 6.36513 41.2802 4.96499C37.9199 3.56485 34.3148 2.84571 30.6744 2.84926Z" fill="#201B52"/>
<path d="M31.4751 40.4909H27.1183C27.0376 40.4182 27.0103 40.3989 26.987 40.3713C26.9637 40.3437 26.9259 40.3198 26.9201 40.2894C26.8772 40.1224 26.8502 39.9521 26.8394 39.7806C26.8465 35.6093 26.8583 31.438 26.8752 27.2667C26.9082 27.1262 26.96 26.9901 27.029 26.8618C28.2706 26.8618 29.543 26.8554 30.8157 26.8618C30.89 26.8579 30.9644 26.8689 31.0338 26.8943C31.1033 26.9196 31.1663 26.9586 31.2185 27.0088C31.2708 27.0589 31.3109 27.119 31.3367 27.1851C31.3625 27.2511 31.3733 27.3216 31.3681 27.3918C31.3797 27.5989 31.3681 27.8059 31.3681 28.1454C31.6413 27.9614 31.8338 27.8436 32.0156 27.7102C32.7505 27.1531 33.62 26.7774 34.5462 26.6168C35.4723 26.4562 36.4263 26.5158 37.3221 26.7901C38.158 27.0204 38.906 27.4739 39.4767 28.0961C40.0474 28.7183 40.4168 29.4829 40.5404 30.2986C40.6919 30.9083 40.7731 31.5318 40.7825 32.1582C40.8116 34.7345 40.7989 37.3036 40.797 39.8772C40.783 40.0683 40.7573 40.2585 40.72 40.4467H36.2234C36.1932 40.1219 36.1437 39.8256 36.1427 39.5266C36.1378 37.4747 36.1515 35.4237 36.1379 33.3727C36.1371 32.9222 36.0869 32.4729 35.9882 32.0321C35.9569 31.5903 35.7422 31.1782 35.3907 30.8859C35.0392 30.5936 34.5797 30.445 34.1127 30.4725C33.5963 30.3989 33.0695 30.5103 32.6354 30.785C32.2012 31.0597 31.8911 31.4778 31.7656 31.9576C31.6114 32.6004 31.5332 33.2574 31.5323 33.9165C31.507 35.7246 31.5323 37.5327 31.5323 39.3407C31.5343 39.683 31.5004 40.0226 31.4751 40.4909Z" fill="#201B52"/>
<path d="M19.9853 26.5287H25.3102C25.4437 27.6893 25.4764 28.8562 25.4081 30.0206C25.4438 31.1616 25.4289 32.3045 25.4312 33.4455C25.4312 34.6224 25.4312 35.7992 25.4312 36.977C25.4312 38.1095 25.4312 39.2364 25.4312 40.4888C23.6781 40.4888 22.0828 40.4963 20.4875 40.4831C20.3987 40.4862 20.31 40.4733 20.228 40.4451C20.146 40.4169 20.0727 40.3743 20.0131 40.3202C19.9536 40.2661 19.9095 40.2019 19.8838 40.1322C19.858 40.0624 19.8514 39.9889 19.8644 39.9168C19.8644 39.4893 19.8849 39.0609 19.886 38.6333C19.8937 34.9212 19.901 31.2107 19.908 27.5017C19.9056 27.2006 19.9542 26.8911 19.9853 26.5287Z" fill="#201B52"/>
<path d="M22.6696 25.131C21.9351 25.1215 21.2325 24.83 20.7086 24.3174C20.1847 23.8049 19.8801 23.1108 19.8579 22.38C19.8852 21.6506 20.1832 20.9572 20.6942 20.4338C21.2053 19.9104 21.8933 19.5941 22.625 19.5461C23.3545 19.5983 24.0407 19.9102 24.5581 20.4246C25.0755 20.939 25.3895 21.6217 25.4427 22.3477C25.4289 23.0776 25.133 23.7741 24.6165 24.2925C24.1001 24.8108 23.4028 25.1112 22.6696 25.131Z" fill="#201B52"/>
</svg>
