<svg width="62" height="61" viewBox="0 0 62 61" fill="none" xmlns="http://www.w3.org/2000/svg">
<path d="M0.762695 30.2989C0.770493 26.2978 1.56911 22.3377 3.11265 18.6464C4.65619 14.955 6.91427 11.6052 9.75689 8.78953C12.5995 5.97386 15.9707 3.74789 19.6765 2.23961C23.3824 0.731335 27.3497 -0.0294958 31.3507 0.000874643C39.4018 0.0112366 47.1189 3.21942 52.8047 8.91969C58.4905 14.62 61.6793 22.3454 61.6693 30.3966C61.5942 38.3774 58.4174 46.016 52.8112 51.6966C47.205 57.3771 39.6088 60.6541 31.6298 60.8343C27.5947 60.8683 23.5928 60.1042 19.8541 58.5858C16.1155 57.0675 12.7139 54.8248 9.84518 51.9869C6.97643 49.149 4.69695 45.7719 3.13822 42.0498C1.57948 38.3277 0.772307 34.3342 0.762695 30.2989ZM3.60112 30.6521C3.56446 34.3362 4.27797 37.9891 5.69849 41.3884C7.11902 44.7877 9.21681 47.8622 11.8638 50.4248C14.5108 52.9873 17.6517 54.9841 21.0952 56.2936C24.5388 57.6032 28.2128 58.198 31.8937 58.0418C39.1638 57.8708 46.0746 54.8457 51.1324 49.6204C56.1901 44.3951 58.9888 37.3893 58.923 30.1174C58.9143 26.4937 58.1889 22.9075 56.7888 19.5653C55.3886 16.223 53.3412 13.1907 50.7646 10.6428C48.1879 8.09491 45.1329 6.0818 41.7751 4.71932C38.4174 3.35685 34.8235 2.67192 31.2 2.70397C27.5498 2.71726 23.9381 3.45175 20.5727 4.86524C17.2072 6.27873 14.1541 8.34335 11.5891 10.9405C9.02404 13.5376 6.99746 16.616 5.62589 19.9987C4.25431 23.3815 3.565 27.002 3.59703 30.6521H3.60112Z" fill="#201B52"/>
<path d="M18.9121 37.9592C21.2957 38.3052 23.7205 37.7099 25.6735 36.2993C24.7312 36.1 23.8555 35.6633 23.1289 35.0307C22.4023 34.3981 21.849 33.5904 21.5214 32.6841H22.8639C21.1188 31.5205 19.8653 30.1125 19.8603 27.7306C20.216 27.8549 20.4627 27.9481 20.7144 28.0253C20.9485 28.1023 21.1929 28.1433 21.4393 28.1471C20.6287 27.3249 20.1069 26.2615 19.9524 25.117C19.7979 23.9724 20.0192 22.8086 20.5827 21.8007C21.7951 23.252 23.271 24.4604 24.9326 25.3622C26.6153 26.2505 28.4705 26.7635 30.3702 26.8659C30.3878 26.5787 30.4146 26.3403 30.4163 26.1019C30.3817 24.8817 30.7949 23.6911 31.5778 22.755C32.3608 21.819 33.4593 21.2023 34.6656 21.0216C35.3083 20.8976 35.9705 20.9187 36.6039 21.0836C37.2374 21.2485 37.8261 21.5529 38.3269 21.9745C38.542 22.1816 38.8149 22.3185 39.1094 22.3672C39.4038 22.4159 39.7061 22.3741 39.9764 22.2474C40.4454 22.0585 40.8991 21.836 41.3631 21.6303C41.5535 21.5463 41.7465 21.4624 42.0343 21.3423C42.0293 22.422 41.3037 22.987 40.8221 23.7972L42.6476 23.2507C42.5788 23.5025 42.5821 23.7259 42.4722 23.851C41.98 24.4304 41.4537 24.9799 40.8959 25.4965C40.7285 25.6342 40.5942 25.8079 40.5034 26.0048C40.4126 26.2016 40.3676 26.4165 40.3715 26.6333C40.1064 32.3961 37.4695 36.7141 32.246 39.1925C30.4316 40.056 28.4462 40.4991 26.4371 40.489C24.428 40.4788 22.4468 40.0156 20.6413 39.1337C20.2345 38.9568 19.8374 38.7584 19.4516 38.5393C19.2822 38.4444 19.1797 38.2555 18.9121 37.9592Z" fill="#201B52"/>
</svg>
