<?xml version="1.0" encoding="UTF-8"?>
<!DOCTYPE svg PUBLIC "-//W3C//DTD SVG 1.1//EN" "http://www.w3.org/Graphics/SVG/1.1/DTD/svg11.dtd">
<!-- Creator: CorelDRAW -->
<svg xmlns="http://www.w3.org/2000/svg" xml:space="preserve" width="127mm" height="76.2mm" version="1.1" style="shape-rendering:geometricPrecision; text-rendering:geometricPrecision; image-rendering:optimizeQuality; fill-rule:evenodd; clip-rule:evenodd"
viewBox="0 0 12700 7620"
 xmlns:xlink="http://www.w3.org/1999/xlink"
 xmlns:xodm="http://www.corel.com/coreldraw/odm/2003">
 <defs>
  <style type="text/css">
   <![CDATA[
    .fil0 {fill:#4DA351}
    .fil1 {fill:white}
    .fil2 {fill:#3A385D;fill-rule:nonzero}
   ]]>
  </style>
 </defs>
 <g id="Layer_x0020_1">
  <metadata id="CorelCorpID_0Corel-Layer"/>
  <g id="_2527661376720">
   <g>
    <path class="fil0" d="M4569.16 3804.31l-330.33 1495.6 -182.22 -1.5c-40.4,-0.34 -88.85,-8.34 -129.17,-13.64 -64.57,-8.52 -129.11,-17.6 -193.58,-26.9 -100.37,-14.49 -231.61,-27.89 -328.33,-53.39l-124.12 -32.72 -350.82 -1238.43 -356.02 1249.79 -911.86 121.26 -794.02 -3490.32 1026.19 0 282.46 1242.93 347.58 -1242.93 817.98 0 356.77 1251.44 283.97 -1251.44 1025.11 0 -148.1 670.53c95.39,-141.57 210.32,-270.23 342.3,-386.39 269.78,-237.45 582.6,-394.54 934.12,-469.94 301.15,-64.58 604.28,-62.21 905.22,3.77 311.92,68.4 610.52,269.8 862.31,460.44l99.17 75.07 0.35 -495.77 2094.18 -2.27 0 1062.55 -1017.67 0 0 156.05 1017.67 0 0 1060.52 -1017.67 0 0 1494.11 -1079.2 0 0.38 -522.5c-82.39,84.24 -170.63,161.66 -264.93,228.11 -234.74,165.4 -504.08,269.09 -783.73,329.07 -533.99,114.52 -1049.01,52.56 -1511.4,-244.6 -460.4,-295.87 -729.88,-735.89 -843.97,-1267.86 -11.47,-53.52 -21.04,-107.08 -28.62,-160.64zm3433.34 133.43l1.15 -1607.57 -506.81 708.88 -181.88 -124.52c-274.7,-188.05 -632.33,-319.2 -967.63,-247.29 -246.53,52.87 -437.5,177.17 -575.24,388.9 -137.6,211.47 -172.94,434.95 -120.13,681.15 35.25,164.4 101.78,316.55 213.7,443.35 104,117.83 230.55,197.65 380.92,243.51 162.28,49.49 327.04,50.53 492.6,15.05 138.65,-29.72 269.48,-82.46 384.08,-166.83 139.6,-102.78 263.07,-268.39 356.95,-412.23l125.17 -191.76 397.12 269.36z"/>
    <path class="fil1" d="M8144.58 4529.49c-138.89,188.9 -301.96,370.03 -489.79,502.37 -218.88,154.22 -470.83,250.3 -731.52,306.21 -496.96,106.59 -973.94,51.56 -1404.49,-225.13 -428.32,-275.27 -675.58,-683.19 -781.66,-1177.87 -68.59,-319.82 -64.81,-640.46 37.21,-952.45 100.39,-306.99 280.64,-564.34 522.76,-777.45 251.5,-221.34 542.18,-367.29 869.86,-437.57 281.24,-60.33 563.76,-58 844.81,3.63 288.47,63.25 573.84,258.45 806.84,434.85l63.97 48.43 -420.44 588.08 -66.67 -45.64c-308.14,-210.94 -703,-349.47 -1078.01,-269.04 -283.39,60.78 -506.5,207.18 -664.81,450.52 -158.3,243.3 -200.78,505.43 -140.02,788.74 40.44,188.52 117.95,362.48 246.19,507.77 121.46,137.61 270.62,231.96 446.2,285.51 185.52,56.57 374.72,58.67 564.04,18.08 158.51,-33.98 307.73,-94.99 438.7,-191.41 154.59,-113.83 287.72,-289.65 391.8,-449.1l45.88 -70.3 499.38 338.74 1.71 -2392.34 1809.28 -1.97 0 777.41 -1017.67 0 0 441.04 1017.67 0 0 775.52 -1017.67 0 0 1494.11 -794.1 0 0.55 -770.74zm-5981.51 -892.3l469.96 -1680.63 602.32 0 480.02 1683.75 382.06 -1683.75 733.92 0 -706.76 3199.91 -66.8 -0.55c-33.76,-0.29 -77.91,-7.98 -111.72,-12.44 -64,-8.43 -127.96,-17.43 -191.85,-26.66 -64.9,-9.36 -129.79,-18.96 -194.57,-29.18 -37.25,-5.88 -81.51,-11.38 -117.79,-20.95l-45.5 -11.99 -465.38 -1642.85 -467.85 1642.33 -690.31 91.8 -725.57 -3189.42 733.88 0 381.94 1680.63z"/>
    <g>
     <polygon class="fil2" points="8228.92,1896.49 9873.34,1894.7 9873.34,2507.09 8855.66,2507.09 8855.66,3113.06 9873.34,3113.06 9873.34,3723.65 8855.66,3723.65 8855.66,5217.76 8226.55,5217.76 "/>
     <path class="fil2" d="M7768.82 2271.83l-326.79 457.07c-361.02,-247.14 -773.61,-360.6 -1141.88,-281.62 -310.3,66.54 -549.64,228.95 -716.64,486.17 -167.76,257.33 -218.06,540.71 -151.52,851.02 46.38,216.17 135.01,398.05 265,545.04 130.14,147.74 291.75,250.96 483.97,309.81 193.02,58.64 394.47,65.05 605.37,19.84 179.26,-38.43 336.33,-106.81 470.32,-205.64 134.75,-99.03 272.04,-256.08 411.95,-470.43l513.54 348.34c-189.25,285.6 -381.09,496.91 -574.84,633.02 -193.61,136.83 -427.92,234.36 -701.32,292.99 -504.62,108.23 -952.36,37.22 -1342.62,-213.88 -390.09,-250.39 -638.52,-626.43 -745.61,-1125.79 -69.45,-323.87 -57.95,-626.48 34.96,-909.52 92.15,-282.89 258.26,-529.67 498.87,-741.18 239.85,-211.37 517.1,-351.19 832.67,-418.84 267.37,-57.38 537.13,-56.26 809.85,3.55 272.06,59.64 550.9,250.6 774.72,420.05z"/>
     <path class="fil2" d="M1150.58 2039.02l564.72 0 439.51 1933.93 540.79 -1933.93 477.52 0 551.33 1933.93 438.82 -1933.93 565.41 0 -670.21 3034.43c-37.57,-0.31 -543.82,-72.84 -595.59,-86.49l-531.68 -1876.89 -532.56 1869.49 -562.11 74.75 -685.95 -3015.29z"/>
    </g>
   </g>
   <path class="fil0" d="M11831.31 766.85l-5790.25 -16.5 -552.52 -4.15 1.95 2.58 -1.95 0 365.5 483.59 1.79 0 197.39 261.28c17.39,-4.15 34.87,-8.12 52.42,-11.89 149.49,-32.07 299.75,-48.7 450.01,-50.27l-149.25 -197.54 4788.84 13.65 -1294.14 4612.34 -670.64 -887.74 0 620.36 -80.72 0 602.58 797.64 -0.02 0.02 58.89 77.92 6.73 8.9 299.89 396.77 1713.5 -6106.96z"/>
  </g>
 </g>
</svg>
